<!-- icon666.com - MILLIONS vector ICONS FREE --><svg viewBox="0 0 24 24" xmlns="http://www.w3.org/2000/svg" xmlns:xlink="http://www.w3.org/1999/xlink"><linearGradient id="Orange_Yellow" gradientUnits="userSpaceOnUse" x1="-1.629" x2="20.366" y1="24.549" y2="1.877"><stop offset="0" stop-color="#fff33b"></stop><stop offset=".04" stop-color="#fee72e"></stop><stop offset=".117" stop-color="#fed51b"></stop><stop offset=".196" stop-color="#fdca10"></stop><stop offset=".281" stop-color="#fdc70c"></stop><stop offset=".669" stop-color="#f3903f"></stop><stop offset=".888" stop-color="#ed683c"></stop><stop offset="1" stop-color="#e93e3a"></stop></linearGradient><linearGradient id="Orange_Yellow-2" x1="-2.075" x2="19.92" xlink:href="#Orange_Yellow" y1="24.116" y2="1.444"></linearGradient><linearGradient id="Orange_Yellow-3" x1=".454" x2="22.45" xlink:href="#Orange_Yellow" y1="26.57" y2="3.898"></linearGradient><linearGradient id="Orange_Yellow-4" x1="1.954" x2="23.949" xlink:href="#Orange_Yellow" y1="28.025" y2="5.353"></linearGradient><g id="Layer_2" data-name="Layer 2"><path d="m20.769 2.5h-17.538a1.734 1.734 0 0 0 -1.731 1.731v12.538a1.734 1.734 0 0 0 1.731 1.731h3.269v2.5a.5.5 0 0 0 .854.354l1.646-1.647 1.646 1.647a.5.5 0 0 0 .354.146.493.493 0 0 0 .191-.038.5.5 0 0 0 .309-.462v-2.5h9.269a1.734 1.734 0 0 0 1.731-1.731v-12.538a1.734 1.734 0 0 0 -1.731-1.731zm-10.269 17.293-1.146-1.147a.5.5 0 0 0 -.708 0l-1.146 1.147v-3.569a4.214 4.214 0 0 0 3 0zm-1.5-4.293a3.5 3.5 0 1 1 3.5-3.5 3.5 3.5 0 0 1 -3.5 3.5zm12.5 1.269a.732.732 0 0 1 -.731.731h-9.269v-1.762a4.5 4.5 0 1 0 -5 0v1.762h-3.269a.732.732 0 0 1 -.731-.731v-12.538a.732.732 0 0 1 .731-.731h17.538a.732.732 0 0 1 .731.731z" fill="url(#Orange_Yellow)" style="fill: rgb(28, 113, 216);"></path><path d="m19 5.5h-7a.5.5 0 0 0 0 1h7a.5.5 0 0 0 0-1z" fill="url(#Orange_Yellow-2)" style="fill: rgb(28, 113, 216);"></path><path d="m19 8.5h-3a.5.5 0 0 0 0 1h3a.5.5 0 0 0 0-1z" fill="url(#Orange_Yellow-3)" style="fill: rgb(53, 132, 228);"></path><path d="m19 11.5h-3a.5.5 0 0 0 0 1h3a.5.5 0 0 0 0-1z" fill="url(#Orange_Yellow-4)" style="fill: rgb(0, 0, 255);"></path></g></svg>