<!-- icon666.com - MILLIONS vector ICONS FREE --><svg id="Layer_1" enable-background="new 0 0 511.848 511.848" viewBox="0 0 511.848 511.848" xmlns="http://www.w3.org/2000/svg"><g><path d="m341.575 0h-294.747c-25.705 0-46.618 20.309-46.618 45.271v421.29c0 24.962 20.913 45.271 46.618 45.271h294.747c25.706 0 46.618-20.309 46.618-45.271v-421.29c0-24.962-20.912-45.271-46.618-45.271zm16.618 466.562c0 8.42-7.455 15.271-16.618 15.271h-294.747c-9.163 0-16.618-6.851-16.618-15.271v-421.291c0-8.42 7.455-15.271 16.618-15.271h294.747c9.163 0 16.618 6.851 16.618 15.271z"></path><circle cx="194.202" cy="438.45" r="15.099"></circle><path d="m169.016 88.668h50.372c8.284 0 15-6.716 15-15s-6.716-15-15-15h-50.372c-8.284 0-15 6.716-15 15s6.716 15 15 15z"></path><path d="m421.602 496.848c0 8.284 6.716 15 15 15h60.036c8.284 0 15-6.716 15-15v-367.204c0-2.037-.415-4.052-1.219-5.922l-30.018-69.849c-2.367-5.508-7.786-9.078-13.781-9.078s-11.414 3.57-13.781 9.078l-30.018 69.849c-.804 1.871-1.219 3.886-1.219 5.922zm30-301.402h30.036v213.046h-30.036zm15.018-97.661 15.018 34.946v32.715h-30.036v-32.716zm-15.444 384.063v-43.356h30.036v43.356z"></path><path d="m307.551 250.418h-226.698c-8.284 0-15 6.716-15 15v110.511c0 8.284 6.716 15 15 15h226.697c8.284 0 15-6.716 15-15v-110.511c.001-8.284-6.715-15-14.999-15zm-15 110.511h-196.698v-80.511h196.697v80.511z"></path><path d="m80.853 160.405h65.416c8.284 0 15-6.716 15-15s-6.716-15-15-15h-65.416c-8.284 0-15 6.716-15 15s6.716 15 15 15z"></path><path d="m80.853 216.974h65.416c8.284 0 15-6.716 15-15s-6.716-15-15-15h-65.416c-8.284 0-15 6.716-15 15s6.716 15 15 15z"></path></g></svg>