<!-- icon666.com - MILLIONS vector ICONS FREE --><svg version="1.1" id="Layer_1" xmlns="http://www.w3.org/2000/svg" xmlns:xlink="http://www.w3.org/1999/xlink" x="0px" y="0px" viewBox="0 0 508 508" style="enable-background:new 0 0 508 508;" xml:space="preserve"><path style="fill:#6DB8E0;" d="M254,0C113.8,0,0,113.8,0,254c0,60,20.8,115.2,55.8,158.8c46.6,58,118,95.2,198.2,95.2 c113.8,0,210-74.8,242.4-177.8c7.6-24,11.6-49.6,11.6-76.2C508,113.8,394.2,0,254,0z"></path><polygon style="fill:#EDF0F2;" points="306.8,90.4 131.8,90.4 131.8,384.4 354.6,384.4 354.6,138.2 "></polygon><g><rect x="165.4" y="322" style="fill:#BCBFC2;" width="155.8" height="3.6"></rect><rect x="165.4" y="347" style="fill:#BCBFC2;" width="58" height="3.6"></rect></g><rect x="165.4" y="137.4" style="fill:#E65336;" width="54.4" height="3.6"></rect><g><rect x="165.4" y="161" style="fill:#BCBFC2;" width="155.8" height="3.6"></rect><rect x="165.4" y="183" style="fill:#BCBFC2;" width="116.6" height="3.6"></rect><rect x="165.4" y="246.8" style="fill:#BCBFC2;" width="155.8" height="3.6"></rect><rect x="165.4" y="271.8" style="fill:#BCBFC2;" width="155.8" height="3.6"></rect><rect x="165.4" y="296.8" style="fill:#BCBFC2;" width="155.8" height="3.6"></rect></g><rect x="165.4" y="222" style="fill:#6DB8E0;" width="105.6" height="3.6"></rect><polygon style="fill:#BCBFC2;" points="306.8,138.2 354.6,138.2 306.8,90.4 "></polygon><path style="fill:#36505F;" d="M132.6,376l62.8-75.8l-22.6-22.6L97,340.4c-11.4,9.4-12.2,26.8-1.8,37.2 C105.8,388.4,123,387.6,132.6,376z M108.4,364.8c-3.4-3.4-3.4-8.8,0-12.2c3.4-3.4,8.8-3.4,12.2,0c3.4,3.4,3.4,8.8,0,12.2 S111.8,368,108.4,364.8z"></path><path style="fill:#0B2C48;" d="M182,251.2l-13,13c-4.6,4.6-4.6,12.2,0,16.8l22.8,22.8c4.6,4.6,12.2,4.6,16.8,0l13-13L182,251.2z"></path><path style="fill:#527F99;" d="M299,173.8c-29.4-29.4-77.2-29.4-106.6,0s-29.4,77.2,0,106.6s77.2,29.4,106.6,0 C328.4,250.8,328.4,203.2,299,173.8z M208.8,264c-20.4-20.4-20.4-53.6,0-74.2s53.6-20.4,74.2,0c20.4,20.4,20.4,53.6,0,74.2 C262.4,284.6,229.2,284.6,208.8,264z"></path><path style="fill:#C89D2C;" d="M363.2,268l-57,20.2v57c0,0,3.2,36.2,57,72.4c53.8-36.2,57-72.4,57-72.4v-57L363.2,268z"></path><polygon style="fill:#F0C949;" points="363.2,275.8 363.2,275.8 313.6,293.4 313.6,342.8 363.2,342.8 "></polygon><g><polygon style="fill:#F7F8F9;" points="412.8,342.8 412.8,293.4 363.2,275.8 363.2,342.8 "></polygon><path style="fill:#F7F8F9;" d="M313.6,342.8v2c0.4,3,6,33,49.6,63.8l0,0v-65.8H313.6z"></path></g><path style="fill:#F0C949;" d="M363.2,342.8v65.8c43.6-31,49.2-61,49.6-63.8v-2H363.2z"></path></svg>